<svg width="640" height="180" viewBox="0 0 640 180" fill="none" xmlns="http://www.w3.org/2000/svg">
  <rect x="12" y="12" width="156" height="156" rx="42" fill="#082F49"/>
  <rect x="12.75" y="12.75" width="154.5" height="154.5" rx="41.25" stroke="#38BDF8" stroke-opacity="0.22" stroke-width="1.5"/>
  <path d="M115.5 50H81C66.6406 50 55 61.6406 55 76C55 90.3594 66.6406 102 81 102H99C113.359 102 125 113.641 125 128C125 142.359 113.359 154 99 154H60.5" stroke="#7DD3FC" stroke-width="14" stroke-linecap="round"/>
  <circle cx="115.5" cy="50" r="8" fill="#38BDF8"/>
  <circle cx="60.5" cy="154" r="8" fill="#38BDF8"/>
  <circle cx="99" cy="102" r="6" fill="#E0F2FE" fill-opacity="0.95"/>
  <path d="M212 112V68.6H231.4C236.413 68.6 240.573 69.34 243.88 70.82C247.227 72.3 249.74 74.36 251.42 77C253.14 79.6 254 82.62 254 86.06C254 89.5 253.12 92.54 251.36 95.18C249.64 97.82 247.087 99.9 243.7 101.42C240.353 102.9 236.233 103.64 231.34 103.64H218.3V94.94H229.9C232.92 94.94 235.373 94.56 237.26 93.8C239.187 93 240.6 91.92 241.5 90.56C242.4 89.16 242.85 87.66 242.85 86.06C242.85 84.42 242.4 82.94 241.5 81.62C240.6 80.26 239.187 79.2 237.26 78.44C235.333 77.68 232.86 77.3 229.84 77.3H223.34V112H212Z" fill="white"/>
  <path d="M280.535 112.84C275.975 112.84 271.975 111.86 268.535 109.9C265.135 107.9 262.475 105.14 260.555 101.62C258.635 98.06 257.675 93.94 257.675 89.26C257.675 84.66 258.635 80.58 260.555 77.02C262.515 73.42 265.235 70.6 268.715 68.56C272.195 66.52 276.255 65.5 280.895 65.5C284.015 65.5 286.955 66 289.715 67C292.475 68 294.895 69.48 296.975 71.44C299.055 73.36 300.675 75.76 301.835 78.64C302.995 81.48 303.575 84.78 303.575 88.54V91.72H262.955V84.8H292.915C292.875 82.84 292.455 81.1 291.655 79.58C290.855 78.02 289.735 76.8 288.295 75.92C286.895 75.04 285.255 74.6 283.375 74.6C281.375 74.6 279.595 75.08 278.035 76.04C276.475 76.96 275.255 78.26 274.375 79.94C273.535 81.58 273.095 83.4 273.055 85.4V91.46C273.055 93.98 273.515 96.14 274.435 97.94C275.355 99.74 276.655 101.12 278.335 102.08C280.015 103.04 281.995 103.52 284.275 103.52C285.795 103.52 287.175 103.3 288.415 102.86C289.655 102.42 290.715 101.78 291.595 100.94C292.475 100.1 293.135 99.06 293.575 97.82L303.155 98.9C302.555 101.42 301.355 103.62 299.555 105.5C297.795 107.34 295.535 108.78 292.775 109.82C290.055 110.82 285.975 112.84 280.535 112.84Z" fill="white"/>
  <path d="M308.85 112V66.1H319.77V112H308.85ZM314.34 59.58C312.62 59.58 311.14 59.02 309.9 57.9C308.7 56.74 308.1 55.36 308.1 53.76C308.1 52.12 308.7 50.74 309.9 49.62C311.14 48.46 312.62 47.88 314.34 47.88C316.06 47.88 317.52 48.46 318.72 49.62C319.96 50.74 320.58 52.12 320.58 53.76C320.58 55.36 319.96 56.74 318.72 57.9C317.52 59.02 316.06 59.58 314.34 59.58Z" fill="white"/>
  <path d="M343.326 112.9C338.686 112.9 334.726 111.88 331.446 109.84C328.206 107.76 325.726 104.9 324.006 101.26L333.526 98.96C334.446 101.08 335.806 102.68 337.606 103.76C339.446 104.8 341.706 105.32 344.386 105.32C347.186 105.32 349.446 104.8 351.166 103.76C352.926 102.68 353.806 101.26 353.806 99.5C353.806 97.98 353.206 96.8 352.006 95.96C350.846 95.12 348.826 94.38 345.946 93.74L338.426 92.12C334.266 91.24 331.106 89.74 328.946 87.62C326.826 85.46 325.766 82.62 325.766 79.1C325.766 76.22 326.586 73.72 328.226 71.6C329.906 69.48 332.226 67.84 335.186 66.68C338.146 65.48 341.566 64.88 345.446 64.88C349.966 64.88 353.586 65.84 356.306 67.76C359.066 69.64 361.086 72.36 362.366 75.92L353.306 78.22C352.626 76.38 351.486 74.98 349.886 74.02C348.326 73.06 346.286 72.58 343.766 72.58C341.206 72.58 339.146 73.06 337.586 74.02C336.026 74.94 335.246 76.2 335.246 77.8C335.246 79.04 335.746 80.14 336.746 81.1C337.746 82.02 339.486 82.74 341.966 83.26L349.486 84.82C353.926 85.74 357.246 87.26 359.446 89.38C361.646 91.5 362.746 94.3 362.746 97.78C362.746 100.74 361.886 103.34 360.166 105.58C358.486 107.82 356.086 109.56 352.966 110.8C349.886 112.2 346.666 112.9 343.326 112.9Z" fill="white"/>
  <path d="M384.709 112.84C380.149 112.84 376.149 111.86 372.709 109.9C369.309 107.9 366.649 105.14 364.729 101.62C362.809 98.06 361.849 93.94 361.849 89.26C361.849 84.66 362.809 80.58 364.729 77.02C366.689 73.42 369.409 70.6 372.889 68.56C376.369 66.52 380.429 65.5 385.069 65.5C388.189 65.5 391.129 66 393.889 67C396.649 68 399.069 69.48 401.149 71.44C403.229 73.36 404.849 75.76 406.009 78.64C407.169 81.48 407.749 84.78 407.749 88.54V91.72H367.129V84.8H397.089C397.049 82.84 396.629 81.1 395.829 79.58C395.029 78.02 393.909 76.8 392.469 75.92C391.069 75.04 389.429 74.6 387.549 74.6C385.549 74.6 383.769 75.08 382.209 76.04C380.649 76.96 379.429 78.26 378.549 79.94C377.709 81.58 377.269 83.4 377.229 85.4V91.46C377.229 93.98 377.689 96.14 378.609 97.94C379.529 99.74 380.829 101.12 382.509 102.08C384.189 103.04 386.169 103.52 388.449 103.52C389.969 103.52 391.349 103.3 392.589 102.86C393.829 102.42 394.889 101.78 395.769 100.94C396.649 100.1 397.309 99.06 397.749 97.82L407.329 98.9C406.729 101.42 405.529 103.62 403.729 105.5C401.969 107.34 399.709 108.78 396.949 109.82C394.229 110.82 390.149 112.84 384.709 112.84Z" fill="white"/>
  <path d="M412.004 112V48.6H422.924V112H412.004Z" fill="white"/>
  <path d="M434.299 112V48.6H445.219V112H434.299Z" fill="white"/>
  <path d="M453.971 129.16C452.531 129.16 451.231 129.04 450.071 128.8C448.951 128.56 448.111 128.34 447.551 128.14L450.071 119.68C451.591 120.12 452.951 120.36 454.151 120.4C455.391 120.44 456.471 120.08 457.391 119.32C458.351 118.56 459.171 117.28 459.851 115.48L460.811 112.84L444.431 66.1H455.951L465.971 99.56H466.451L476.531 66.1H488.111L469.691 117.64C468.811 120.12 467.631 122.3 466.151 124.18C464.711 126.06 462.931 127.52 460.811 128.56C458.731 129.62 456.451 129.82 453.971 129.16Z" fill="white"/>
</svg>
